<mxfile host="app.diagrams.net" modified="2023-11-20T13:54:18.051Z" agent="Mozilla/5.0 (Macintosh; Intel Mac OS X 10_15_7) AppleWebKit/537.36 (KHTML, like Gecko) Chrome/119.0.0.0 Safari/537.36" etag="8vR5hT26nhKrOVjXveHZ" version="22.1.3" type="device">
  <diagram id="R2lEEEUBdFMjLlhIrx00" name="Page-1">
    <mxGraphModel dx="715" dy="418" grid="1" gridSize="10" guides="1" tooltips="1" connect="1" arrows="1" fold="1" page="1" pageScale="1" pageWidth="3300" pageHeight="4681" math="0" shadow="0" extFonts="Permanent Marker^https://fonts.googleapis.com/css?family=Permanent+Marker">
      <root>
        <mxCell id="0" />
        <mxCell id="1" parent="0" />
        <mxCell id="1GTwUBaE6gafLs46mViq-55" value="Veicoli" style="rounded=0;whiteSpace=wrap;html=1;" parent="1" vertex="1">
          <mxGeometry x="1170" y="450" width="120" height="60" as="geometry" />
        </mxCell>
        <mxCell id="1GTwUBaE6gafLs46mViq-56" value="" style="endArrow=oval;html=1;rounded=0;exitX=0.5;exitY=0;exitDx=0;exitDy=0;endFill=0;" parent="1" edge="1">
          <mxGeometry width="50" height="50" relative="1" as="geometry">
            <mxPoint x="1200" y="450" as="sourcePoint" />
            <mxPoint x="1200" y="420" as="targetPoint" />
          </mxGeometry>
        </mxCell>
        <mxCell id="1GTwUBaE6gafLs46mViq-57" value="&lt;font style=&quot;font-size: 7px;&quot;&gt;Marca&lt;/font&gt;" style="text;html=1;strokeColor=none;fillColor=none;align=center;verticalAlign=middle;whiteSpace=wrap;rounded=0;" parent="1" vertex="1">
          <mxGeometry x="1170" y="390" width="60" height="30" as="geometry" />
        </mxCell>
        <mxCell id="1GTwUBaE6gafLs46mViq-58" value="" style="endArrow=oval;html=1;rounded=0;exitX=0.417;exitY=0;exitDx=0;exitDy=0;endFill=0;exitPerimeter=0;" parent="1" source="1GTwUBaE6gafLs46mViq-55" target="1GTwUBaE6gafLs46mViq-59" edge="1">
          <mxGeometry width="50" height="50" relative="1" as="geometry">
            <mxPoint x="1220" y="430" as="sourcePoint" />
            <mxPoint x="1220" y="380" as="targetPoint" />
          </mxGeometry>
        </mxCell>
        <mxCell id="1GTwUBaE6gafLs46mViq-59" value="&lt;font style=&quot;font-size: 7px;&quot;&gt;Modello&lt;/font&gt;" style="text;html=1;strokeColor=none;fillColor=none;align=center;verticalAlign=middle;whiteSpace=wrap;rounded=0;" parent="1" vertex="1">
          <mxGeometry x="1190" y="360" width="60" height="30" as="geometry" />
        </mxCell>
        <mxCell id="1GTwUBaE6gafLs46mViq-60" value="" style="endArrow=oval;html=1;rounded=0;exitX=0.5;exitY=0;exitDx=0;exitDy=0;endFill=1;fontColor=#FFFFFF;strokeColor=#000000;labelBackgroundColor=#757575;" parent="1" target="1GTwUBaE6gafLs46mViq-61" edge="1">
          <mxGeometry width="50" height="50" relative="1" as="geometry">
            <mxPoint x="1240" y="450" as="sourcePoint" />
            <mxPoint x="1240" y="400" as="targetPoint" />
          </mxGeometry>
        </mxCell>
        <mxCell id="1GTwUBaE6gafLs46mViq-61" value="&lt;font style=&quot;font-size: 7px;&quot;&gt;ID_&lt;font style=&quot;font-size: 7px;&quot;&gt;Autista&lt;/font&gt;&lt;/font&gt;" style="text;html=1;strokeColor=none;fillColor=none;align=center;verticalAlign=middle;whiteSpace=wrap;rounded=0;" parent="1" vertex="1">
          <mxGeometry x="1210" y="390" width="60" height="30" as="geometry" />
        </mxCell>
        <mxCell id="1GTwUBaE6gafLs46mViq-66" value="" style="endArrow=oval;html=1;rounded=0;exitX=0.417;exitY=0;exitDx=0;exitDy=0;endFill=1;exitPerimeter=0;" parent="1" target="1GTwUBaE6gafLs46mViq-67" edge="1">
          <mxGeometry width="50" height="50" relative="1" as="geometry">
            <mxPoint x="1180" y="450" as="sourcePoint" />
            <mxPoint x="1180" y="380" as="targetPoint" />
          </mxGeometry>
        </mxCell>
        <mxCell id="1GTwUBaE6gafLs46mViq-67" value="&lt;div style=&quot;font-size: 7px;&quot;&gt;Targa&lt;/div&gt;" style="text;html=1;strokeColor=none;fillColor=none;align=center;verticalAlign=middle;whiteSpace=wrap;rounded=0;" parent="1" vertex="1">
          <mxGeometry x="1150" y="360" width="60" height="30" as="geometry" />
        </mxCell>
        <mxCell id="1GTwUBaE6gafLs46mViq-72" value="&lt;font style=&quot;font-size: 8px;&quot;&gt;Autista guida veicolo&lt;/font&gt;" style="shape=rhombus;perimeter=rhombusPerimeter;whiteSpace=wrap;html=1;align=center;" parent="1" vertex="1">
          <mxGeometry x="1040" y="460" width="70" height="40" as="geometry" />
        </mxCell>
        <mxCell id="1GTwUBaE6gafLs46mViq-77" value="" style="shape=waypoint;sketch=0;fillStyle=solid;size=6;pointerEvents=1;points=[];fillColor=none;resizable=0;rotatable=0;perimeter=centerPerimeter;snapToPoint=1;strokeColor=#8F8F8F;" parent="1" vertex="1">
          <mxGeometry x="1230" y="410" width="20" height="20" as="geometry" />
        </mxCell>
        <mxCell id="WVK-Z61vjBoYHEyCaG1b-17" value="Zone" style="rounded=0;whiteSpace=wrap;html=1;" parent="1" vertex="1">
          <mxGeometry x="1490" y="450" width="120" height="60" as="geometry" />
        </mxCell>
        <mxCell id="WVK-Z61vjBoYHEyCaG1b-22" value="" style="endArrow=oval;html=1;rounded=0;exitX=0.417;exitY=0;exitDx=0;exitDy=0;endFill=1;exitPerimeter=0;" parent="1" target="WVK-Z61vjBoYHEyCaG1b-23" edge="1">
          <mxGeometry width="50" height="50" relative="1" as="geometry">
            <mxPoint x="1500" y="450" as="sourcePoint" />
            <mxPoint x="1500" y="380" as="targetPoint" />
          </mxGeometry>
        </mxCell>
        <mxCell id="WVK-Z61vjBoYHEyCaG1b-23" value="&lt;font style=&quot;font-size: 7px;&quot;&gt;ID_Zona&lt;/font&gt;" style="text;html=1;strokeColor=none;fillColor=none;align=center;verticalAlign=middle;whiteSpace=wrap;rounded=0;" parent="1" vertex="1">
          <mxGeometry x="1470" y="360" width="60" height="30" as="geometry" />
        </mxCell>
        <mxCell id="WVK-Z61vjBoYHEyCaG1b-30" value="" style="endArrow=none;html=1;rounded=0;exitX=1;exitY=0.5;exitDx=0;exitDy=0;entryX=0;entryY=0.5;entryDx=0;entryDy=0;" parent="1" target="1GTwUBaE6gafLs46mViq-72" edge="1">
          <mxGeometry relative="1" as="geometry">
            <mxPoint x="980" y="480" as="sourcePoint" />
            <mxPoint x="1190" y="540" as="targetPoint" />
          </mxGeometry>
        </mxCell>
        <mxCell id="WVK-Z61vjBoYHEyCaG1b-31" value="1,1" style="resizable=0;html=1;whiteSpace=wrap;align=right;verticalAlign=bottom;" parent="WVK-Z61vjBoYHEyCaG1b-30" connectable="0" vertex="1">
          <mxGeometry x="1" relative="1" as="geometry" />
        </mxCell>
        <mxCell id="WVK-Z61vjBoYHEyCaG1b-32" value="" style="endArrow=none;html=1;rounded=0;entryX=0;entryY=0.5;entryDx=0;entryDy=0;" parent="1" target="1GTwUBaE6gafLs46mViq-55" edge="1">
          <mxGeometry relative="1" as="geometry">
            <mxPoint x="1110" y="480" as="sourcePoint" />
            <mxPoint x="1160" y="480" as="targetPoint" />
          </mxGeometry>
        </mxCell>
        <mxCell id="WVK-Z61vjBoYHEyCaG1b-33" value="1,1" style="resizable=0;html=1;whiteSpace=wrap;align=right;verticalAlign=bottom;" parent="WVK-Z61vjBoYHEyCaG1b-32" connectable="0" vertex="1">
          <mxGeometry x="1" relative="1" as="geometry">
            <mxPoint x="-40" as="offset" />
          </mxGeometry>
        </mxCell>
        <mxCell id="WVK-Z61vjBoYHEyCaG1b-49" value="Turni" style="rounded=0;whiteSpace=wrap;html=1;" parent="1" vertex="1">
          <mxGeometry x="739.49" y="640" width="120" height="60" as="geometry" />
        </mxCell>
        <mxCell id="WVK-Z61vjBoYHEyCaG1b-56" value="" style="endArrow=oval;html=1;rounded=0;exitX=0.417;exitY=0;exitDx=0;exitDy=0;endFill=1;exitPerimeter=0;" parent="1" target="WVK-Z61vjBoYHEyCaG1b-57" edge="1">
          <mxGeometry width="50" height="50" relative="1" as="geometry">
            <mxPoint x="759.49" y="640" as="sourcePoint" />
            <mxPoint x="759.49" y="570" as="targetPoint" />
          </mxGeometry>
        </mxCell>
        <mxCell id="WVK-Z61vjBoYHEyCaG1b-57" value="&lt;div&gt;&lt;span style=&quot;font-size: 7px;&quot;&gt;ID_Turno&lt;/span&gt;&lt;/div&gt;" style="text;html=1;strokeColor=none;fillColor=none;align=center;verticalAlign=middle;whiteSpace=wrap;rounded=0;" parent="1" vertex="1">
          <mxGeometry x="729.49" y="550" width="60" height="30" as="geometry" />
        </mxCell>
        <mxCell id="WVK-Z61vjBoYHEyCaG1b-60" value="Avere" style="shape=rhombus;perimeter=rhombusPerimeter;whiteSpace=wrap;html=1;align=center;" parent="1" vertex="1">
          <mxGeometry x="885" y="560" width="70" height="40" as="geometry" />
        </mxCell>
        <mxCell id="WVK-Z61vjBoYHEyCaG1b-72" value="" style="endArrow=none;html=1;rounded=0;exitX=0.5;exitY=1;exitDx=0;exitDy=0;entryX=0.5;entryY=0;entryDx=0;entryDy=0;" parent="1" target="WVK-Z61vjBoYHEyCaG1b-60" edge="1" source="m7EIwp2qNDk-36-i3Lt1-24">
          <mxGeometry relative="1" as="geometry">
            <mxPoint x="950" y="510" as="sourcePoint" />
            <mxPoint x="1070" y="580" as="targetPoint" />
          </mxGeometry>
        </mxCell>
        <mxCell id="WVK-Z61vjBoYHEyCaG1b-73" value="1,1" style="resizable=0;html=1;whiteSpace=wrap;align=right;verticalAlign=bottom;" parent="WVK-Z61vjBoYHEyCaG1b-72" connectable="0" vertex="1">
          <mxGeometry x="1" relative="1" as="geometry" />
        </mxCell>
        <mxCell id="WVK-Z61vjBoYHEyCaG1b-78" value="" style="endArrow=oval;html=1;rounded=0;exitDx=0;exitDy=0;endFill=1;fontColor=#FFFFFF;strokeColor=#000000;labelBackgroundColor=#757575;" parent="1" edge="1">
          <mxGeometry width="50" height="50" relative="1" as="geometry">
            <mxPoint x="879.49" y="660" as="sourcePoint" />
            <mxPoint x="879.49" y="660" as="targetPoint" />
          </mxGeometry>
        </mxCell>
        <mxCell id="zgEXHdy59-02v655x-aA-15" value="Feedback" style="rounded=0;whiteSpace=wrap;html=1;" parent="1" vertex="1">
          <mxGeometry x="1620" y="670" width="120" height="60" as="geometry" />
        </mxCell>
        <mxCell id="zgEXHdy59-02v655x-aA-16" value="" style="endArrow=oval;html=1;rounded=0;exitX=0.5;exitY=0;exitDx=0;exitDy=0;endFill=0;" parent="1" target="zgEXHdy59-02v655x-aA-17" edge="1">
          <mxGeometry width="50" height="50" relative="1" as="geometry">
            <mxPoint x="1650" y="670" as="sourcePoint" />
            <mxPoint x="1650" y="620" as="targetPoint" />
          </mxGeometry>
        </mxCell>
        <mxCell id="zgEXHdy59-02v655x-aA-17" value="&lt;font style=&quot;font-size: 7px;&quot;&gt;Stelle&lt;/font&gt;" style="text;html=1;strokeColor=none;fillColor=none;align=center;verticalAlign=middle;whiteSpace=wrap;rounded=0;" parent="1" vertex="1">
          <mxGeometry x="1620" y="610" width="60" height="30" as="geometry" />
        </mxCell>
        <mxCell id="zgEXHdy59-02v655x-aA-18" value="" style="endArrow=oval;html=1;rounded=0;exitX=0.417;exitY=0;exitDx=0;exitDy=0;endFill=0;exitPerimeter=0;" parent="1" source="zgEXHdy59-02v655x-aA-15" target="zgEXHdy59-02v655x-aA-19" edge="1">
          <mxGeometry width="50" height="50" relative="1" as="geometry">
            <mxPoint x="1670" y="650" as="sourcePoint" />
            <mxPoint x="1670" y="600" as="targetPoint" />
          </mxGeometry>
        </mxCell>
        <mxCell id="zgEXHdy59-02v655x-aA-19" value="&lt;font style=&quot;font-size: 7px;&quot;&gt;Commento&lt;br&gt;&lt;/font&gt;" style="text;html=1;strokeColor=none;fillColor=none;align=center;verticalAlign=middle;whiteSpace=wrap;rounded=0;" parent="1" vertex="1">
          <mxGeometry x="1640" y="580" width="60" height="30" as="geometry" />
        </mxCell>
        <mxCell id="zgEXHdy59-02v655x-aA-20" value="" style="endArrow=oval;html=1;rounded=0;exitX=0.5;exitY=0;exitDx=0;exitDy=0;endFill=1;fontColor=#FFFFFF;strokeColor=#000000;labelBackgroundColor=#757575;" parent="1" target="zgEXHdy59-02v655x-aA-21" edge="1">
          <mxGeometry width="50" height="50" relative="1" as="geometry">
            <mxPoint x="1690" y="670" as="sourcePoint" />
            <mxPoint x="1690" y="620" as="targetPoint" />
          </mxGeometry>
        </mxCell>
        <mxCell id="zgEXHdy59-02v655x-aA-21" value="&lt;font style=&quot;font-size: 7px;&quot;&gt;ID_Utente&lt;br&gt;&lt;/font&gt;" style="text;html=1;strokeColor=none;fillColor=none;align=center;verticalAlign=middle;whiteSpace=wrap;rounded=0;" parent="1" vertex="1">
          <mxGeometry x="1660" y="610" width="60" height="30" as="geometry" />
        </mxCell>
        <mxCell id="zgEXHdy59-02v655x-aA-22" value="" style="endArrow=oval;html=1;rounded=0;exitX=0.417;exitY=0;exitDx=0;exitDy=0;endFill=1;exitPerimeter=0;" parent="1" target="zgEXHdy59-02v655x-aA-23" edge="1">
          <mxGeometry width="50" height="50" relative="1" as="geometry">
            <mxPoint x="1630" y="670" as="sourcePoint" />
            <mxPoint x="1630" y="600" as="targetPoint" />
          </mxGeometry>
        </mxCell>
        <mxCell id="zgEXHdy59-02v655x-aA-23" value="&lt;font style=&quot;font-size: 7px;&quot;&gt;ID_Feedback&lt;/font&gt;" style="text;html=1;strokeColor=none;fillColor=none;align=center;verticalAlign=middle;whiteSpace=wrap;rounded=0;" parent="1" vertex="1">
          <mxGeometry x="1600" y="580" width="60" height="30" as="geometry" />
        </mxCell>
        <mxCell id="zgEXHdy59-02v655x-aA-24" value="" style="shape=waypoint;sketch=0;fillStyle=solid;size=6;pointerEvents=1;points=[];fillColor=none;resizable=0;rotatable=0;perimeter=centerPerimeter;snapToPoint=1;strokeColor=#8F8F8F;" parent="1" vertex="1">
          <mxGeometry x="1680" y="630" width="20" height="20" as="geometry" />
        </mxCell>
        <mxCell id="zgEXHdy59-02v655x-aA-25" value="" style="endArrow=oval;html=1;rounded=0;exitX=0.417;exitY=0;exitDx=0;exitDy=0;endFill=0;exitPerimeter=0;" parent="1" target="zgEXHdy59-02v655x-aA-26" edge="1">
          <mxGeometry width="50" height="50" relative="1" as="geometry">
            <mxPoint x="1710" y="670" as="sourcePoint" />
            <mxPoint x="1710" y="600" as="targetPoint" />
          </mxGeometry>
        </mxCell>
        <mxCell id="zgEXHdy59-02v655x-aA-26" value="&lt;font style=&quot;font-size: 7px;&quot;&gt;Data&lt;br&gt;&lt;/font&gt;" style="text;html=1;strokeColor=none;fillColor=none;align=center;verticalAlign=middle;whiteSpace=wrap;rounded=0;" parent="1" vertex="1">
          <mxGeometry x="1680" y="580" width="60" height="30" as="geometry" />
        </mxCell>
        <mxCell id="zgEXHdy59-02v655x-aA-27" value="Lasciare" style="rhombus;whiteSpace=wrap;html=1;" parent="1" vertex="1">
          <mxGeometry x="1650" y="770" width="60" height="40" as="geometry" />
        </mxCell>
        <mxCell id="zgEXHdy59-02v655x-aA-30" value="" style="endArrow=oval;html=1;rounded=0;exitX=0.5;exitY=0;exitDx=0;exitDy=0;endFill=0;" parent="1" edge="1">
          <mxGeometry width="50" height="50" relative="1" as="geometry">
            <mxPoint x="1520" y="450" as="sourcePoint" />
            <mxPoint x="1520" y="420" as="targetPoint" />
          </mxGeometry>
        </mxCell>
        <mxCell id="zgEXHdy59-02v655x-aA-31" value="&lt;font style=&quot;font-size: 7px;&quot;&gt;Nome&lt;/font&gt;" style="text;html=1;strokeColor=none;fillColor=none;align=center;verticalAlign=middle;whiteSpace=wrap;rounded=0;" parent="1" vertex="1">
          <mxGeometry x="1490" y="390" width="60" height="30" as="geometry" />
        </mxCell>
        <mxCell id="zgEXHdy59-02v655x-aA-33" value="&lt;div style=&quot;font-size: 11px;&quot; align=&quot;center&quot;&gt;&lt;font style=&quot;font-size: 8px;&quot;&gt;Appartenere&lt;/font&gt;&lt;/div&gt;" style="rhombus;whiteSpace=wrap;html=1;align=center;" parent="1" vertex="1">
          <mxGeometry x="1370" y="460" width="60" height="40" as="geometry" />
        </mxCell>
        <mxCell id="zgEXHdy59-02v655x-aA-35" value="" style="endArrow=none;html=1;rounded=0;exitX=1;exitY=0.5;exitDx=0;exitDy=0;entryX=0;entryY=0.5;entryDx=0;entryDy=0;" parent="1" source="1GTwUBaE6gafLs46mViq-55" target="zgEXHdy59-02v655x-aA-33" edge="1">
          <mxGeometry relative="1" as="geometry">
            <mxPoint x="1320" y="560" as="sourcePoint" />
            <mxPoint x="1480" y="560" as="targetPoint" />
          </mxGeometry>
        </mxCell>
        <mxCell id="zgEXHdy59-02v655x-aA-36" value="1,1" style="resizable=0;html=1;whiteSpace=wrap;align=right;verticalAlign=bottom;" parent="zgEXHdy59-02v655x-aA-35" connectable="0" vertex="1">
          <mxGeometry x="1" relative="1" as="geometry" />
        </mxCell>
        <mxCell id="zgEXHdy59-02v655x-aA-37" value="" style="endArrow=none;html=1;rounded=0;exitX=1;exitY=0.5;exitDx=0;exitDy=0;entryX=0;entryY=0.5;entryDx=0;entryDy=0;" parent="1" source="zgEXHdy59-02v655x-aA-33" target="WVK-Z61vjBoYHEyCaG1b-17" edge="1">
          <mxGeometry relative="1" as="geometry">
            <mxPoint x="1320" y="560" as="sourcePoint" />
            <mxPoint x="1480" y="560" as="targetPoint" />
          </mxGeometry>
        </mxCell>
        <mxCell id="zgEXHdy59-02v655x-aA-38" value="1,1" style="resizable=0;html=1;whiteSpace=wrap;align=right;verticalAlign=bottom;" parent="zgEXHdy59-02v655x-aA-37" connectable="0" vertex="1">
          <mxGeometry x="1" relative="1" as="geometry">
            <mxPoint x="-40" as="offset" />
          </mxGeometry>
        </mxCell>
        <mxCell id="zgEXHdy59-02v655x-aA-51" value="Ricambi" style="rounded=0;whiteSpace=wrap;html=1;" parent="1" vertex="1">
          <mxGeometry x="550" y="450" width="120" height="60" as="geometry" />
        </mxCell>
        <mxCell id="zgEXHdy59-02v655x-aA-52" value="" style="endArrow=oval;html=1;rounded=0;exitX=0.5;exitY=0;exitDx=0;exitDy=0;endFill=0;" parent="1" edge="1">
          <mxGeometry width="50" height="50" relative="1" as="geometry">
            <mxPoint x="580" y="450" as="sourcePoint" />
            <mxPoint x="580" y="420" as="targetPoint" />
          </mxGeometry>
        </mxCell>
        <mxCell id="zgEXHdy59-02v655x-aA-53" value="&lt;font style=&quot;font-size: 7px;&quot;&gt;Modello&lt;/font&gt;" style="text;html=1;strokeColor=none;fillColor=none;align=center;verticalAlign=middle;whiteSpace=wrap;rounded=0;" parent="1" vertex="1">
          <mxGeometry x="550" y="390" width="60" height="30" as="geometry" />
        </mxCell>
        <mxCell id="zgEXHdy59-02v655x-aA-54" value="" style="endArrow=oval;html=1;rounded=0;exitX=0.417;exitY=0;exitDx=0;exitDy=0;endFill=0;exitPerimeter=0;" parent="1" source="zgEXHdy59-02v655x-aA-51" target="zgEXHdy59-02v655x-aA-55" edge="1">
          <mxGeometry width="50" height="50" relative="1" as="geometry">
            <mxPoint x="600" y="430" as="sourcePoint" />
            <mxPoint x="600" y="380" as="targetPoint" />
          </mxGeometry>
        </mxCell>
        <mxCell id="zgEXHdy59-02v655x-aA-55" value="&lt;font style=&quot;font-size: 7px;&quot;&gt;Costo&lt;/font&gt;" style="text;html=1;strokeColor=none;fillColor=none;align=center;verticalAlign=middle;whiteSpace=wrap;rounded=0;" parent="1" vertex="1">
          <mxGeometry x="570" y="360" width="60" height="30" as="geometry" />
        </mxCell>
        <mxCell id="zgEXHdy59-02v655x-aA-56" value="" style="endArrow=oval;html=1;rounded=0;exitX=0.417;exitY=0;exitDx=0;exitDy=0;endFill=1;exitPerimeter=0;" parent="1" target="zgEXHdy59-02v655x-aA-57" edge="1">
          <mxGeometry width="50" height="50" relative="1" as="geometry">
            <mxPoint x="560" y="450" as="sourcePoint" />
            <mxPoint x="560" y="380" as="targetPoint" />
          </mxGeometry>
        </mxCell>
        <mxCell id="zgEXHdy59-02v655x-aA-57" value="&lt;font style=&quot;font-size: 7px;&quot;&gt;Serial_Number&lt;/font&gt;" style="text;html=1;strokeColor=none;fillColor=none;align=center;verticalAlign=middle;whiteSpace=wrap;rounded=0;" parent="1" vertex="1">
          <mxGeometry x="530" y="360" width="60" height="30" as="geometry" />
        </mxCell>
        <mxCell id="zgEXHdy59-02v655x-aA-58" value="" style="shape=waypoint;sketch=0;fillStyle=solid;size=6;pointerEvents=1;points=[];fillColor=none;resizable=0;rotatable=0;perimeter=centerPerimeter;snapToPoint=1;strokeColor=#FFFFFF;strokeWidth=1;perimeterSpacing=0;" parent="1" vertex="1">
          <mxGeometry x="610" y="410" width="20" height="20" as="geometry" />
        </mxCell>
        <mxCell id="zgEXHdy59-02v655x-aA-59" value="" style="endArrow=oval;html=1;rounded=0;exitX=0.5;exitY=0;exitDx=0;exitDy=0;endFill=0;" parent="1" edge="1">
          <mxGeometry width="50" height="50" relative="1" as="geometry">
            <mxPoint x="620" y="450" as="sourcePoint" />
            <mxPoint x="620" y="420" as="targetPoint" />
          </mxGeometry>
        </mxCell>
        <mxCell id="zgEXHdy59-02v655x-aA-60" value="&lt;p style=&quot;line-height: 90%; font-size: 7px;&quot;&gt;&lt;font style=&quot;font-size: 7px;&quot;&gt;Marca &lt;br&gt;compatibile&lt;br&gt;&lt;/font&gt;&lt;/p&gt;" style="text;html=1;strokeColor=none;fillColor=none;align=center;verticalAlign=middle;whiteSpace=wrap;rounded=0;" parent="1" vertex="1">
          <mxGeometry x="590" y="390" width="60" height="30" as="geometry" />
        </mxCell>
        <mxCell id="zgEXHdy59-02v655x-aA-64" value="Officina" style="rounded=0;whiteSpace=wrap;html=1;" parent="1" vertex="1">
          <mxGeometry x="400" y="660" width="120" height="60" as="geometry" />
        </mxCell>
        <mxCell id="zgEXHdy59-02v655x-aA-65" value="" style="endArrow=oval;html=1;rounded=0;exitX=0.5;exitY=0;exitDx=0;exitDy=0;endFill=1;" parent="1" edge="1">
          <mxGeometry width="50" height="50" relative="1" as="geometry">
            <mxPoint x="430" y="660" as="sourcePoint" />
            <mxPoint x="430" y="630" as="targetPoint" />
          </mxGeometry>
        </mxCell>
        <mxCell id="zgEXHdy59-02v655x-aA-66" value="&lt;font style=&quot;font-size: 7px;&quot;&gt;Zona&lt;/font&gt;" style="text;html=1;strokeColor=none;fillColor=none;align=center;verticalAlign=middle;whiteSpace=wrap;rounded=0;" parent="1" vertex="1">
          <mxGeometry x="400" y="600" width="60" height="30" as="geometry" />
        </mxCell>
        <mxCell id="zgEXHdy59-02v655x-aA-67" value="" style="endArrow=oval;html=1;rounded=0;exitX=0.417;exitY=0;exitDx=0;exitDy=0;endFill=0;exitPerimeter=0;" parent="1" source="zgEXHdy59-02v655x-aA-64" target="zgEXHdy59-02v655x-aA-68" edge="1">
          <mxGeometry width="50" height="50" relative="1" as="geometry">
            <mxPoint x="450" y="640" as="sourcePoint" />
            <mxPoint x="450" y="590" as="targetPoint" />
          </mxGeometry>
        </mxCell>
        <mxCell id="zgEXHdy59-02v655x-aA-68" value="&lt;font style=&quot;font-size: 7px;&quot;&gt;Nome&lt;br&gt;&lt;/font&gt;" style="text;html=1;strokeColor=none;fillColor=none;align=center;verticalAlign=middle;whiteSpace=wrap;rounded=0;" parent="1" vertex="1">
          <mxGeometry x="420" y="570" width="60" height="30" as="geometry" />
        </mxCell>
        <mxCell id="zgEXHdy59-02v655x-aA-69" value="" style="endArrow=oval;html=1;rounded=0;exitX=0.417;exitY=0;exitDx=0;exitDy=0;endFill=1;exitPerimeter=0;" parent="1" target="zgEXHdy59-02v655x-aA-70" edge="1">
          <mxGeometry width="50" height="50" relative="1" as="geometry">
            <mxPoint x="410" y="660" as="sourcePoint" />
            <mxPoint x="410" y="590" as="targetPoint" />
          </mxGeometry>
        </mxCell>
        <mxCell id="zgEXHdy59-02v655x-aA-70" value="&lt;font style=&quot;font-size: 7px;&quot;&gt;ID_Officina&lt;br&gt;&lt;/font&gt;" style="text;html=1;strokeColor=none;fillColor=none;align=center;verticalAlign=middle;whiteSpace=wrap;rounded=0;" parent="1" vertex="1">
          <mxGeometry x="380" y="570" width="60" height="30" as="geometry" />
        </mxCell>
        <mxCell id="zgEXHdy59-02v655x-aA-71" value="" style="shape=waypoint;sketch=0;fillStyle=solid;size=6;pointerEvents=1;points=[];fillColor=none;resizable=0;rotatable=0;perimeter=centerPerimeter;snapToPoint=1;strokeColor=#FFFFFF;strokeWidth=1;perimeterSpacing=0;" parent="1" vertex="1">
          <mxGeometry x="460" y="620" width="20" height="20" as="geometry" />
        </mxCell>
        <mxCell id="zgEXHdy59-02v655x-aA-72" value="" style="endArrow=oval;html=1;rounded=0;exitX=0.5;exitY=0;exitDx=0;exitDy=0;endFill=0;" parent="1" edge="1">
          <mxGeometry width="50" height="50" relative="1" as="geometry">
            <mxPoint x="470" y="660" as="sourcePoint" />
            <mxPoint x="470" y="630" as="targetPoint" />
          </mxGeometry>
        </mxCell>
        <mxCell id="zgEXHdy59-02v655x-aA-73" value="&lt;font style=&quot;font-size: 7px;&quot;&gt;Apertura&lt;br&gt;&lt;/font&gt;" style="text;html=1;strokeColor=none;fillColor=none;align=center;verticalAlign=middle;whiteSpace=wrap;rounded=0;" parent="1" vertex="1">
          <mxGeometry x="440" y="600" width="60" height="30" as="geometry" />
        </mxCell>
        <mxCell id="zgEXHdy59-02v655x-aA-74" value="" style="shape=waypoint;sketch=0;fillStyle=solid;size=6;pointerEvents=1;points=[];fillColor=none;resizable=0;rotatable=0;perimeter=centerPerimeter;snapToPoint=1;strokeColor=#8f8f8f;" parent="1" vertex="1">
          <mxGeometry x="420" y="620" width="20" height="20" as="geometry" />
        </mxCell>
        <mxCell id="zgEXHdy59-02v655x-aA-75" value="" style="endArrow=oval;html=1;rounded=0;exitX=0.417;exitY=0;exitDx=0;exitDy=0;endFill=0;exitPerimeter=0;" parent="1" target="zgEXHdy59-02v655x-aA-76" edge="1">
          <mxGeometry width="50" height="50" relative="1" as="geometry">
            <mxPoint x="490" y="660" as="sourcePoint" />
            <mxPoint x="490" y="590" as="targetPoint" />
          </mxGeometry>
        </mxCell>
        <mxCell id="zgEXHdy59-02v655x-aA-76" value="&lt;font style=&quot;font-size: 7px;&quot;&gt;Chiusura&lt;/font&gt;" style="text;html=1;strokeColor=none;fillColor=none;align=center;verticalAlign=middle;whiteSpace=wrap;rounded=0;" parent="1" vertex="1">
          <mxGeometry x="460" y="570" width="60" height="30" as="geometry" />
        </mxCell>
        <mxCell id="zgEXHdy59-02v655x-aA-77" value="" style="endArrow=none;html=1;rounded=0;" parent="1" edge="1">
          <mxGeometry relative="1" as="geometry">
            <mxPoint x="670" y="470" as="sourcePoint" />
            <mxPoint x="730" y="470" as="targetPoint" />
          </mxGeometry>
        </mxCell>
        <mxCell id="zgEXHdy59-02v655x-aA-78" value="1,1" style="resizable=0;html=1;whiteSpace=wrap;align=right;verticalAlign=bottom;" parent="zgEXHdy59-02v655x-aA-77" connectable="0" vertex="1">
          <mxGeometry x="1" relative="1" as="geometry" />
        </mxCell>
        <mxCell id="zgEXHdy59-02v655x-aA-79" value="&lt;font style=&quot;font-size: 11px;&quot;&gt;Richiedere&lt;/font&gt;" style="shape=rhombus;perimeter=rhombusPerimeter;whiteSpace=wrap;html=1;align=center;" parent="1" vertex="1">
          <mxGeometry x="730" y="450" width="70" height="40" as="geometry" />
        </mxCell>
        <mxCell id="zgEXHdy59-02v655x-aA-80" value="" style="endArrow=none;html=1;rounded=0;exitX=1;exitY=0.5;exitDx=0;exitDy=0;" parent="1" source="zgEXHdy59-02v655x-aA-79" edge="1">
          <mxGeometry relative="1" as="geometry">
            <mxPoint x="750" y="530" as="sourcePoint" />
            <mxPoint x="860" y="470" as="targetPoint" />
          </mxGeometry>
        </mxCell>
        <mxCell id="zgEXHdy59-02v655x-aA-81" value="N,1" style="resizable=0;html=1;whiteSpace=wrap;align=right;verticalAlign=bottom;" parent="zgEXHdy59-02v655x-aA-80" connectable="0" vertex="1">
          <mxGeometry x="1" relative="1" as="geometry">
            <mxPoint x="-40" as="offset" />
          </mxGeometry>
        </mxCell>
        <mxCell id="zgEXHdy59-02v655x-aA-82" value="" style="endArrow=oval;html=1;rounded=0;exitX=0.417;exitY=0;exitDx=0;exitDy=0;endFill=0;exitPerimeter=0;" parent="1" target="zgEXHdy59-02v655x-aA-83" edge="1">
          <mxGeometry width="50" height="50" relative="1" as="geometry">
            <mxPoint x="640" y="450" as="sourcePoint" />
            <mxPoint x="640" y="380" as="targetPoint" />
          </mxGeometry>
        </mxCell>
        <mxCell id="zgEXHdy59-02v655x-aA-83" value="&lt;font style=&quot;font-size: 7px;&quot;&gt;Targa&lt;/font&gt;" style="text;html=1;strokeColor=none;fillColor=none;align=center;verticalAlign=middle;whiteSpace=wrap;rounded=0;" parent="1" vertex="1">
          <mxGeometry x="610" y="360" width="60" height="30" as="geometry" />
        </mxCell>
        <mxCell id="zgEXHdy59-02v655x-aA-84" value="" style="shape=waypoint;sketch=0;fillStyle=solid;size=6;pointerEvents=1;points=[];fillColor=none;resizable=0;rotatable=0;perimeter=centerPerimeter;snapToPoint=1;strokeColor=#8f8f8f;" parent="1" vertex="1">
          <mxGeometry x="630" y="380" width="20" height="20" as="geometry" />
        </mxCell>
        <mxCell id="zgEXHdy59-02v655x-aA-85" value="" style="endArrow=none;html=1;rounded=0;exitX=1;exitY=0.25;exitDx=0;exitDy=0;entryX=0;entryY=0.5;entryDx=0;entryDy=0;" parent="1" source="zgEXHdy59-02v655x-aA-51" edge="1">
          <mxGeometry relative="1" as="geometry">
            <mxPoint x="860" y="410" as="sourcePoint" />
            <mxPoint x="770" y="290" as="targetPoint" />
            <Array as="points">
              <mxPoint x="700" y="465" />
              <mxPoint x="700" y="290" />
            </Array>
          </mxGeometry>
        </mxCell>
        <mxCell id="zgEXHdy59-02v655x-aA-86" value="1,1" style="resizable=0;html=1;whiteSpace=wrap;align=right;verticalAlign=bottom;" parent="zgEXHdy59-02v655x-aA-85" connectable="0" vertex="1">
          <mxGeometry x="1" relative="1" as="geometry" />
        </mxCell>
        <mxCell id="zgEXHdy59-02v655x-aA-87" value="" style="endArrow=none;html=1;rounded=0;exitX=0.75;exitY=0;exitDx=0;exitDy=0;entryX=1;entryY=0.5;entryDx=0;entryDy=0;" parent="1" source="1GTwUBaE6gafLs46mViq-55" target="zgEXHdy59-02v655x-aA-91" edge="1">
          <mxGeometry relative="1" as="geometry">
            <mxPoint x="1040" y="370" as="sourcePoint" />
            <mxPoint x="1260" y="320" as="targetPoint" />
            <Array as="points">
              <mxPoint x="1260" y="360" />
              <mxPoint x="1260" y="290" />
              <mxPoint x="1050" y="290" />
            </Array>
          </mxGeometry>
        </mxCell>
        <mxCell id="zgEXHdy59-02v655x-aA-88" value="1,1" style="resizable=0;html=1;whiteSpace=wrap;align=right;verticalAlign=bottom;" parent="zgEXHdy59-02v655x-aA-87" connectable="0" vertex="1">
          <mxGeometry x="1" relative="1" as="geometry">
            <mxPoint x="10" as="offset" />
          </mxGeometry>
        </mxCell>
        <mxCell id="zgEXHdy59-02v655x-aA-91" value="Montare" style="shape=rhombus;perimeter=rhombusPerimeter;whiteSpace=wrap;html=1;align=center;" parent="1" vertex="1">
          <mxGeometry x="770" y="270" width="70" height="40" as="geometry" />
        </mxCell>
        <mxCell id="zgEXHdy59-02v655x-aA-92" value="" style="endArrow=none;html=1;rounded=0;" parent="1" edge="1">
          <mxGeometry relative="1" as="geometry">
            <mxPoint x="520" y="680" as="sourcePoint" />
            <mxPoint x="580" y="680" as="targetPoint" />
          </mxGeometry>
        </mxCell>
        <mxCell id="zgEXHdy59-02v655x-aA-93" value="1,N" style="resizable=0;html=1;whiteSpace=wrap;align=right;verticalAlign=bottom;" parent="zgEXHdy59-02v655x-aA-92" connectable="0" vertex="1">
          <mxGeometry x="1" relative="1" as="geometry">
            <mxPoint x="-30" as="offset" />
          </mxGeometry>
        </mxCell>
        <mxCell id="zgEXHdy59-02v655x-aA-94" value="Ordinare" style="shape=rhombus;perimeter=rhombusPerimeter;whiteSpace=wrap;html=1;align=center;" parent="1" vertex="1">
          <mxGeometry x="560" y="660" width="70" height="40" as="geometry" />
        </mxCell>
        <mxCell id="zgEXHdy59-02v655x-aA-95" value="" style="endArrow=none;html=1;rounded=0;exitX=1;exitY=0.5;exitDx=0;exitDy=0;entryX=0.75;entryY=1;entryDx=0;entryDy=0;" parent="1" source="zgEXHdy59-02v655x-aA-94" target="zgEXHdy59-02v655x-aA-51" edge="1">
          <mxGeometry relative="1" as="geometry">
            <mxPoint x="520" y="590" as="sourcePoint" />
            <mxPoint x="680" y="590" as="targetPoint" />
            <Array as="points">
              <mxPoint x="640" y="680" />
            </Array>
          </mxGeometry>
        </mxCell>
        <mxCell id="zgEXHdy59-02v655x-aA-96" value="1,1" style="resizable=0;html=1;whiteSpace=wrap;align=right;verticalAlign=bottom;" parent="zgEXHdy59-02v655x-aA-95" connectable="0" vertex="1">
          <mxGeometry x="1" relative="1" as="geometry">
            <mxPoint y="170" as="offset" />
          </mxGeometry>
        </mxCell>
        <mxCell id="zgEXHdy59-02v655x-aA-97" value="Situare" style="shape=rhombus;perimeter=rhombusPerimeter;whiteSpace=wrap;html=1;align=center;" parent="1" vertex="1">
          <mxGeometry x="1040" y="860" width="70" height="40" as="geometry" />
        </mxCell>
        <mxCell id="zgEXHdy59-02v655x-aA-100" value="" style="endArrow=none;html=1;rounded=0;exitX=0.75;exitY=1;exitDx=0;exitDy=0;" parent="1" source="zgEXHdy59-02v655x-aA-64" edge="1">
          <mxGeometry relative="1" as="geometry">
            <mxPoint x="880" y="879.75" as="sourcePoint" />
            <mxPoint x="1040" y="879.75" as="targetPoint" />
            <Array as="points">
              <mxPoint x="490" y="880" />
            </Array>
          </mxGeometry>
        </mxCell>
        <mxCell id="zgEXHdy59-02v655x-aA-101" value="1,1" style="resizable=0;html=1;whiteSpace=wrap;align=right;verticalAlign=bottom;" parent="zgEXHdy59-02v655x-aA-100" connectable="0" vertex="1">
          <mxGeometry x="1" relative="1" as="geometry" />
        </mxCell>
        <mxCell id="zgEXHdy59-02v655x-aA-102" value="" style="endArrow=none;html=1;rounded=0;entryX=0.5;entryY=1;entryDx=0;entryDy=0;" parent="1" target="WVK-Z61vjBoYHEyCaG1b-17" edge="1">
          <mxGeometry relative="1" as="geometry">
            <mxPoint x="1110" y="880" as="sourcePoint" />
            <mxPoint x="1270" y="879.41" as="targetPoint" />
            <Array as="points">
              <mxPoint x="1550" y="880" />
            </Array>
          </mxGeometry>
        </mxCell>
        <mxCell id="zgEXHdy59-02v655x-aA-103" value="N,1" style="resizable=0;html=1;whiteSpace=wrap;align=right;verticalAlign=bottom;" parent="zgEXHdy59-02v655x-aA-102" connectable="0" vertex="1">
          <mxGeometry x="1" relative="1" as="geometry">
            <mxPoint x="-420" y="370" as="offset" />
          </mxGeometry>
        </mxCell>
        <mxCell id="At8KWEUQ3EkD_xp8MVqC-3" value="" style="endArrow=oval;html=1;rounded=0;endFill=1;fontColor=#FFFFFF;strokeColor=#000000;labelBackgroundColor=#757575;" parent="1" target="At8KWEUQ3EkD_xp8MVqC-4" edge="1">
          <mxGeometry width="50" height="50" relative="1" as="geometry">
            <mxPoint x="1540" y="450" as="sourcePoint" />
            <mxPoint x="1540" y="370" as="targetPoint" />
          </mxGeometry>
        </mxCell>
        <mxCell id="At8KWEUQ3EkD_xp8MVqC-4" value="&lt;font style=&quot;font-size: 7px;&quot;&gt;ID_Veicolo&lt;/font&gt;" style="text;html=1;strokeColor=none;fillColor=none;align=center;verticalAlign=middle;whiteSpace=wrap;rounded=0;" parent="1" vertex="1">
          <mxGeometry x="1510" y="360" width="60" height="30" as="geometry" />
        </mxCell>
        <mxCell id="At8KWEUQ3EkD_xp8MVqC-5" value="" style="shape=waypoint;sketch=0;fillStyle=solid;size=6;pointerEvents=1;points=[];fillColor=none;resizable=0;rotatable=0;perimeter=centerPerimeter;snapToPoint=1;strokeColor=#8F8F8F;" parent="1" vertex="1">
          <mxGeometry x="1530" y="380" width="20" height="20" as="geometry" />
        </mxCell>
        <mxCell id="m7EIwp2qNDk-36-i3Lt1-24" value="Autisti" style="rounded=0;whiteSpace=wrap;html=1;" parent="1" vertex="1">
          <mxGeometry x="860" y="450" width="120" height="60" as="geometry" />
        </mxCell>
        <mxCell id="m7EIwp2qNDk-36-i3Lt1-25" value="" style="endArrow=oval;html=1;rounded=0;exitX=0.5;exitY=0;exitDx=0;exitDy=0;endFill=0;" parent="1" target="m7EIwp2qNDk-36-i3Lt1-26" edge="1">
          <mxGeometry width="50" height="50" relative="1" as="geometry">
            <mxPoint x="890" y="450" as="sourcePoint" />
            <mxPoint x="890" y="400" as="targetPoint" />
          </mxGeometry>
        </mxCell>
        <mxCell id="m7EIwp2qNDk-36-i3Lt1-26" value="&lt;font style=&quot;font-size: 7px;&quot;&gt;Nome&lt;/font&gt;" style="text;html=1;strokeColor=none;fillColor=none;align=center;verticalAlign=middle;whiteSpace=wrap;rounded=0;" parent="1" vertex="1">
          <mxGeometry x="860" y="390" width="60" height="30" as="geometry" />
        </mxCell>
        <mxCell id="m7EIwp2qNDk-36-i3Lt1-27" value="" style="endArrow=oval;html=1;rounded=0;exitX=0.417;exitY=0;exitDx=0;exitDy=0;endFill=0;exitPerimeter=0;" parent="1" source="m7EIwp2qNDk-36-i3Lt1-24" target="m7EIwp2qNDk-36-i3Lt1-28" edge="1">
          <mxGeometry width="50" height="50" relative="1" as="geometry">
            <mxPoint x="910" y="430" as="sourcePoint" />
            <mxPoint x="910" y="380" as="targetPoint" />
          </mxGeometry>
        </mxCell>
        <mxCell id="m7EIwp2qNDk-36-i3Lt1-28" value="&lt;div style=&quot;font-size: 7px;&quot;&gt;Cognome&lt;/div&gt;" style="text;html=1;strokeColor=none;fillColor=none;align=center;verticalAlign=middle;whiteSpace=wrap;rounded=0;" parent="1" vertex="1">
          <mxGeometry x="880" y="360" width="60" height="30" as="geometry" />
        </mxCell>
        <mxCell id="m7EIwp2qNDk-36-i3Lt1-33" value="" style="endArrow=oval;html=1;rounded=0;exitX=0.417;exitY=0;exitDx=0;exitDy=0;endFill=1;exitPerimeter=0;" parent="1" target="m7EIwp2qNDk-36-i3Lt1-34" edge="1">
          <mxGeometry width="50" height="50" relative="1" as="geometry">
            <mxPoint x="870" y="450" as="sourcePoint" />
            <mxPoint x="870" y="380" as="targetPoint" />
          </mxGeometry>
        </mxCell>
        <mxCell id="m7EIwp2qNDk-36-i3Lt1-34" value="&lt;font style=&quot;font-size: 7px;&quot;&gt;Matricola&lt;/font&gt;" style="text;html=1;strokeColor=none;fillColor=none;align=center;verticalAlign=middle;whiteSpace=wrap;rounded=0;" parent="1" vertex="1">
          <mxGeometry x="840" y="360" width="60" height="30" as="geometry" />
        </mxCell>
        <mxCell id="m7EIwp2qNDk-36-i3Lt1-37" value="&lt;div&gt;Utenti&lt;/div&gt;" style="rounded=0;whiteSpace=wrap;html=1;" parent="1" vertex="1">
          <mxGeometry x="1390" y="800" width="120" height="60" as="geometry" />
        </mxCell>
        <mxCell id="m7EIwp2qNDk-36-i3Lt1-38" value="" style="endArrow=oval;html=1;rounded=0;exitX=0.5;exitY=0;exitDx=0;exitDy=0;endFill=0;" parent="1" target="m7EIwp2qNDk-36-i3Lt1-39" edge="1">
          <mxGeometry width="50" height="50" relative="1" as="geometry">
            <mxPoint x="1420" y="800" as="sourcePoint" />
            <mxPoint x="1420" y="750" as="targetPoint" />
          </mxGeometry>
        </mxCell>
        <mxCell id="m7EIwp2qNDk-36-i3Lt1-39" value="&lt;font style=&quot;font-size: 7px;&quot;&gt;Nome&lt;/font&gt;" style="text;html=1;strokeColor=none;fillColor=none;align=center;verticalAlign=middle;whiteSpace=wrap;rounded=0;" parent="1" vertex="1">
          <mxGeometry x="1390" y="740" width="60" height="30" as="geometry" />
        </mxCell>
        <mxCell id="m7EIwp2qNDk-36-i3Lt1-40" value="" style="endArrow=oval;html=1;rounded=0;exitX=0.417;exitY=0;exitDx=0;exitDy=0;endFill=0;exitPerimeter=0;" parent="1" source="m7EIwp2qNDk-36-i3Lt1-37" target="m7EIwp2qNDk-36-i3Lt1-41" edge="1">
          <mxGeometry width="50" height="50" relative="1" as="geometry">
            <mxPoint x="1440" y="780" as="sourcePoint" />
            <mxPoint x="1440" y="730" as="targetPoint" />
          </mxGeometry>
        </mxCell>
        <mxCell id="m7EIwp2qNDk-36-i3Lt1-41" value="&lt;div style=&quot;font-size: 7px;&quot;&gt;Cognome&lt;/div&gt;" style="text;html=1;strokeColor=none;fillColor=none;align=center;verticalAlign=middle;whiteSpace=wrap;rounded=0;" parent="1" vertex="1">
          <mxGeometry x="1410" y="710" width="60" height="30" as="geometry" />
        </mxCell>
        <mxCell id="m7EIwp2qNDk-36-i3Lt1-42" value="" style="endArrow=oval;html=1;rounded=0;exitX=0.5;exitY=0;exitDx=0;exitDy=0;endFill=0;" parent="1" target="m7EIwp2qNDk-36-i3Lt1-43" edge="1">
          <mxGeometry width="50" height="50" relative="1" as="geometry">
            <mxPoint x="1460" y="800" as="sourcePoint" />
            <mxPoint x="1460" y="750" as="targetPoint" />
          </mxGeometry>
        </mxCell>
        <mxCell id="m7EIwp2qNDk-36-i3Lt1-43" value="&lt;font style=&quot;font-size: 7px;&quot;&gt;Email&lt;/font&gt;" style="text;html=1;strokeColor=none;fillColor=none;align=center;verticalAlign=middle;whiteSpace=wrap;rounded=0;" parent="1" vertex="1">
          <mxGeometry x="1430" y="740" width="60" height="30" as="geometry" />
        </mxCell>
        <mxCell id="m7EIwp2qNDk-36-i3Lt1-44" value="" style="endArrow=oval;html=1;rounded=0;exitX=0.417;exitY=0;exitDx=0;exitDy=0;endFill=0;exitPerimeter=0;" parent="1" target="m7EIwp2qNDk-36-i3Lt1-45" edge="1">
          <mxGeometry width="50" height="50" relative="1" as="geometry">
            <mxPoint x="1480" y="800" as="sourcePoint" />
            <mxPoint x="1480" y="730" as="targetPoint" />
          </mxGeometry>
        </mxCell>
        <mxCell id="m7EIwp2qNDk-36-i3Lt1-45" value="&lt;div style=&quot;font-size: 7px;&quot;&gt;Psw&lt;br&gt;&lt;/div&gt;" style="text;html=1;strokeColor=none;fillColor=none;align=center;verticalAlign=middle;whiteSpace=wrap;rounded=0;" parent="1" vertex="1">
          <mxGeometry x="1450" y="710" width="60" height="30" as="geometry" />
        </mxCell>
        <mxCell id="m7EIwp2qNDk-36-i3Lt1-46" value="" style="endArrow=oval;html=1;rounded=0;exitX=0.417;exitY=0;exitDx=0;exitDy=0;endFill=1;exitPerimeter=0;" parent="1" target="m7EIwp2qNDk-36-i3Lt1-47" edge="1">
          <mxGeometry width="50" height="50" relative="1" as="geometry">
            <mxPoint x="1400" y="800" as="sourcePoint" />
            <mxPoint x="1400" y="730" as="targetPoint" />
          </mxGeometry>
        </mxCell>
        <mxCell id="m7EIwp2qNDk-36-i3Lt1-47" value="&lt;div style=&quot;font-size: 7px;&quot;&gt;ID_utente&lt;/div&gt;" style="text;html=1;strokeColor=none;fillColor=none;align=center;verticalAlign=middle;whiteSpace=wrap;rounded=0;" parent="1" vertex="1">
          <mxGeometry x="1370" y="710" width="60" height="30" as="geometry" />
        </mxCell>
        <mxCell id="m7EIwp2qNDk-36-i3Lt1-55" value="" style="endArrow=none;html=1;rounded=0;entryX=0.5;entryY=1;entryDx=0;entryDy=0;exitX=0.5;exitY=0;exitDx=0;exitDy=0;" parent="1" source="zgEXHdy59-02v655x-aA-27" target="zgEXHdy59-02v655x-aA-15" edge="1">
          <mxGeometry width="50" height="50" relative="1" as="geometry">
            <mxPoint x="1370" y="840" as="sourcePoint" />
            <mxPoint x="1420" y="790" as="targetPoint" />
          </mxGeometry>
        </mxCell>
        <mxCell id="m7EIwp2qNDk-36-i3Lt1-56" value="1,1" style="resizable=0;html=1;whiteSpace=wrap;align=right;verticalAlign=bottom;" parent="1" connectable="0" vertex="1">
          <mxGeometry x="1690" y="760" as="geometry">
            <mxPoint x="14" y="14" as="offset" />
          </mxGeometry>
        </mxCell>
        <mxCell id="m7EIwp2qNDk-36-i3Lt1-59" value="" style="endArrow=none;html=1;rounded=0;entryX=1;entryY=0.5;entryDx=0;entryDy=0;exitX=0.5;exitY=1;exitDx=0;exitDy=0;" parent="1" target="m7EIwp2qNDk-36-i3Lt1-37" edge="1" source="zgEXHdy59-02v655x-aA-27">
          <mxGeometry width="50" height="50" relative="1" as="geometry">
            <mxPoint x="1600" y="830" as="sourcePoint" />
            <mxPoint x="1450" y="830" as="targetPoint" />
            <Array as="points">
              <mxPoint x="1680" y="830" />
            </Array>
          </mxGeometry>
        </mxCell>
        <mxCell id="m7EIwp2qNDk-36-i3Lt1-61" value="1,N" style="resizable=0;html=1;whiteSpace=wrap;align=right;verticalAlign=bottom;" parent="1" connectable="0" vertex="1">
          <mxGeometry x="1700" y="820" as="geometry">
            <mxPoint x="8" y="4" as="offset" />
          </mxGeometry>
        </mxCell>
        <mxCell id="VP--jvnIrPfgmcB4H4c5-1" value="" style="endArrow=oval;html=1;rounded=0;exitX=0.5;exitY=0;exitDx=0;exitDy=0;endFill=0;" edge="1" parent="1" target="VP--jvnIrPfgmcB4H4c5-2">
          <mxGeometry width="50" height="50" relative="1" as="geometry">
            <mxPoint x="930" y="450" as="sourcePoint" />
            <mxPoint x="930" y="400" as="targetPoint" />
          </mxGeometry>
        </mxCell>
        <mxCell id="VP--jvnIrPfgmcB4H4c5-2" value="&lt;span style=&quot;font-size: 7px;&quot;&gt;Patente&lt;br&gt;&lt;/span&gt;" style="text;html=1;strokeColor=none;fillColor=none;align=center;verticalAlign=middle;whiteSpace=wrap;rounded=0;" vertex="1" parent="1">
          <mxGeometry x="900" y="390" width="60" height="30" as="geometry" />
        </mxCell>
        <mxCell id="VP--jvnIrPfgmcB4H4c5-3" value="" style="endArrow=oval;html=1;rounded=0;exitX=0.417;exitY=0;exitDx=0;exitDy=0;endFill=0;exitPerimeter=0;" edge="1" parent="1" target="VP--jvnIrPfgmcB4H4c5-4">
          <mxGeometry width="50" height="50" relative="1" as="geometry">
            <mxPoint x="950" y="450" as="sourcePoint" />
            <mxPoint x="950" y="380" as="targetPoint" />
          </mxGeometry>
        </mxCell>
        <mxCell id="VP--jvnIrPfgmcB4H4c5-4" value="&lt;div style=&quot;font-size: 7px;&quot;&gt;Data di nascita&lt;/div&gt;" style="text;html=1;strokeColor=none;fillColor=none;align=center;verticalAlign=middle;whiteSpace=wrap;rounded=0;" vertex="1" parent="1">
          <mxGeometry x="920" y="360" width="60" height="30" as="geometry" />
        </mxCell>
        <mxCell id="VP--jvnIrPfgmcB4H4c5-6" value="" style="endArrow=oval;html=1;rounded=0;exitX=0.5;exitY=0;exitDx=0;exitDy=0;endFill=0;" edge="1" parent="1" target="VP--jvnIrPfgmcB4H4c5-7">
          <mxGeometry width="50" height="50" relative="1" as="geometry">
            <mxPoint x="779.49" y="640" as="sourcePoint" />
            <mxPoint x="779.49" y="590" as="targetPoint" />
          </mxGeometry>
        </mxCell>
        <mxCell id="VP--jvnIrPfgmcB4H4c5-7" value="&lt;font style=&quot;font-size: 7px;&quot;&gt;Orario inizio&lt;/font&gt;" style="text;html=1;strokeColor=none;fillColor=none;align=center;verticalAlign=middle;whiteSpace=wrap;rounded=0;" vertex="1" parent="1">
          <mxGeometry x="749.49" y="580" width="60" height="30" as="geometry" />
        </mxCell>
        <mxCell id="VP--jvnIrPfgmcB4H4c5-8" value="" style="endArrow=oval;html=1;rounded=0;exitX=0.417;exitY=0;exitDx=0;exitDy=0;endFill=0;exitPerimeter=0;" edge="1" parent="1" target="VP--jvnIrPfgmcB4H4c5-9">
          <mxGeometry width="50" height="50" relative="1" as="geometry">
            <mxPoint x="799.49" y="640" as="sourcePoint" />
            <mxPoint x="799.49" y="570" as="targetPoint" />
          </mxGeometry>
        </mxCell>
        <mxCell id="VP--jvnIrPfgmcB4H4c5-9" value="&lt;div style=&quot;font-size: 7px;&quot;&gt;Orario fine&lt;/div&gt;" style="text;html=1;strokeColor=none;fillColor=none;align=center;verticalAlign=middle;whiteSpace=wrap;rounded=0;" vertex="1" parent="1">
          <mxGeometry x="769.49" y="550" width="60" height="30" as="geometry" />
        </mxCell>
        <mxCell id="VP--jvnIrPfgmcB4H4c5-10" value="" style="endArrow=oval;html=1;rounded=0;exitX=0.5;exitY=0;exitDx=0;exitDy=0;endFill=1;fontColor=#FFFFFF;strokeColor=#000000;labelBackgroundColor=#757575;" edge="1" parent="1" target="VP--jvnIrPfgmcB4H4c5-11">
          <mxGeometry width="50" height="50" relative="1" as="geometry">
            <mxPoint x="819.49" y="640" as="sourcePoint" />
            <mxPoint x="819.49" y="590" as="targetPoint" />
          </mxGeometry>
        </mxCell>
        <mxCell id="VP--jvnIrPfgmcB4H4c5-11" value="&lt;font style=&quot;font-size: 7px;&quot;&gt;ID_&lt;font style=&quot;font-size: 7px;&quot;&gt;Autista&lt;/font&gt;&lt;/font&gt;" style="text;html=1;strokeColor=none;fillColor=none;align=center;verticalAlign=middle;whiteSpace=wrap;rounded=0;" vertex="1" parent="1">
          <mxGeometry x="789.49" y="580" width="60" height="30" as="geometry" />
        </mxCell>
        <mxCell id="VP--jvnIrPfgmcB4H4c5-12" value="" style="shape=waypoint;sketch=0;fillStyle=solid;size=6;pointerEvents=1;points=[];fillColor=none;resizable=0;rotatable=0;perimeter=centerPerimeter;snapToPoint=1;strokeColor=#8F8F8F;" vertex="1" parent="1">
          <mxGeometry x="809.49" y="600" width="20" height="20" as="geometry" />
        </mxCell>
        <mxCell id="VP--jvnIrPfgmcB4H4c5-13" value="" style="endArrow=oval;html=1;rounded=0;exitX=0.5;exitY=0;exitDx=0;exitDy=0;endFill=0;" edge="1" parent="1" target="VP--jvnIrPfgmcB4H4c5-14">
          <mxGeometry width="50" height="50" relative="1" as="geometry">
            <mxPoint x="1500" y="800" as="sourcePoint" />
            <mxPoint x="1500" y="750" as="targetPoint" />
          </mxGeometry>
        </mxCell>
        <mxCell id="VP--jvnIrPfgmcB4H4c5-14" value="&lt;font style=&quot;font-size: 6px;&quot;&gt;Abbonamento&lt;/font&gt;" style="text;html=1;strokeColor=none;fillColor=none;align=center;verticalAlign=middle;whiteSpace=wrap;rounded=0;" vertex="1" parent="1">
          <mxGeometry x="1470" y="740" width="60" height="30" as="geometry" />
        </mxCell>
        <mxCell id="VP--jvnIrPfgmcB4H4c5-15" value="&lt;font style=&quot;font-size: 12px;&quot;&gt;Prenotare&lt;/font&gt;" style="shape=rhombus;perimeter=rhombusPerimeter;whiteSpace=wrap;html=1;align=center;" vertex="1" parent="1">
          <mxGeometry x="1220" y="660" width="80" height="60" as="geometry" />
        </mxCell>
        <mxCell id="VP--jvnIrPfgmcB4H4c5-18" value="" style="endArrow=none;html=1;rounded=0;exitX=0.5;exitY=1;exitDx=0;exitDy=0;entryX=0;entryY=0.5;entryDx=0;entryDy=0;" edge="1" parent="1" source="VP--jvnIrPfgmcB4H4c5-15" target="m7EIwp2qNDk-36-i3Lt1-37">
          <mxGeometry relative="1" as="geometry">
            <mxPoint x="1330" y="740" as="sourcePoint" />
            <mxPoint x="1490" y="740" as="targetPoint" />
            <Array as="points">
              <mxPoint x="1260" y="830" />
            </Array>
          </mxGeometry>
        </mxCell>
        <mxCell id="VP--jvnIrPfgmcB4H4c5-19" value="N,N" style="resizable=0;html=1;whiteSpace=wrap;align=right;verticalAlign=bottom;" connectable="0" vertex="1" parent="VP--jvnIrPfgmcB4H4c5-18">
          <mxGeometry x="1" relative="1" as="geometry">
            <mxPoint x="-100" y="-50" as="offset" />
          </mxGeometry>
        </mxCell>
        <mxCell id="VP--jvnIrPfgmcB4H4c5-20" value="" style="endArrow=none;html=1;rounded=0;exitX=0.5;exitY=1;exitDx=0;exitDy=0;entryX=1;entryY=0.5;entryDx=0;entryDy=0;" edge="1" parent="1" source="WVK-Z61vjBoYHEyCaG1b-60" target="WVK-Z61vjBoYHEyCaG1b-49">
          <mxGeometry relative="1" as="geometry">
            <mxPoint x="949.86" y="610" as="sourcePoint" />
            <mxPoint x="949.86" y="670" as="targetPoint" />
            <Array as="points">
              <mxPoint x="920" y="670" />
            </Array>
          </mxGeometry>
        </mxCell>
        <mxCell id="VP--jvnIrPfgmcB4H4c5-21" value="1,1" style="resizable=0;html=1;whiteSpace=wrap;align=right;verticalAlign=bottom;" connectable="0" vertex="1" parent="VP--jvnIrPfgmcB4H4c5-20">
          <mxGeometry x="1" relative="1" as="geometry">
            <mxPoint x="61" y="-55" as="offset" />
          </mxGeometry>
        </mxCell>
        <mxCell id="VP--jvnIrPfgmcB4H4c5-24" value="" style="endArrow=none;html=1;rounded=0;exitX=0.75;exitY=1;exitDx=0;exitDy=0;" edge="1" parent="1" source="m7EIwp2qNDk-36-i3Lt1-24">
          <mxGeometry relative="1" as="geometry">
            <mxPoint x="1060" y="690" as="sourcePoint" />
            <mxPoint x="1220" y="690" as="targetPoint" />
            <Array as="points">
              <mxPoint x="950" y="560" />
              <mxPoint x="1040" y="560" />
              <mxPoint x="1040" y="690" />
            </Array>
          </mxGeometry>
        </mxCell>
        <mxCell id="VP--jvnIrPfgmcB4H4c5-25" value="N,N" style="resizable=0;html=1;whiteSpace=wrap;align=right;verticalAlign=bottom;" connectable="0" vertex="1" parent="VP--jvnIrPfgmcB4H4c5-24">
          <mxGeometry x="1" relative="1" as="geometry">
            <mxPoint x="-20" as="offset" />
          </mxGeometry>
        </mxCell>
        <mxCell id="VP--jvnIrPfgmcB4H4c5-27" value="" style="endArrow=oval;html=1;rounded=0;exitX=0.417;exitY=0;exitDx=0;exitDy=0;endFill=1;exitPerimeter=0;" edge="1" parent="1" target="VP--jvnIrPfgmcB4H4c5-28">
          <mxGeometry width="50" height="50" relative="1" as="geometry">
            <mxPoint x="1240" y="675" as="sourcePoint" />
            <mxPoint x="1240" y="605" as="targetPoint" />
          </mxGeometry>
        </mxCell>
        <mxCell id="VP--jvnIrPfgmcB4H4c5-28" value="&lt;div style=&quot;font-size: 7px;&quot;&gt;ID_Prenotazione&lt;/div&gt;" style="text;html=1;strokeColor=none;fillColor=none;align=center;verticalAlign=middle;whiteSpace=wrap;rounded=0;" vertex="1" parent="1">
          <mxGeometry x="1210" y="585" width="60" height="30" as="geometry" />
        </mxCell>
        <mxCell id="VP--jvnIrPfgmcB4H4c5-29" value="" style="endArrow=oval;html=1;rounded=0;exitX=0.5;exitY=0;exitDx=0;exitDy=0;endFill=0;" edge="1" parent="1">
          <mxGeometry width="50" height="50" relative="1" as="geometry">
            <mxPoint x="1280" y="675" as="sourcePoint" />
            <mxPoint x="1280" y="645" as="targetPoint" />
          </mxGeometry>
        </mxCell>
        <mxCell id="VP--jvnIrPfgmcB4H4c5-30" value="&lt;font style=&quot;font-size: 7px;&quot;&gt;Partenza&lt;/font&gt;" style="text;html=1;strokeColor=none;fillColor=none;align=center;verticalAlign=middle;whiteSpace=wrap;rounded=0;" vertex="1" parent="1">
          <mxGeometry x="1250" y="615" width="60" height="30" as="geometry" />
        </mxCell>
        <mxCell id="VP--jvnIrPfgmcB4H4c5-31" value="" style="endArrow=none;html=1;rounded=0;exitX=0.5;exitY=0;exitDx=0;exitDy=0;endFill=0;startArrow=oval;startFill=0;entryX=0;entryY=1;entryDx=0;entryDy=0;" edge="1" parent="1" target="VP--jvnIrPfgmcB4H4c5-15">
          <mxGeometry width="50" height="50" relative="1" as="geometry">
            <mxPoint x="1239.88" y="740" as="sourcePoint" />
            <mxPoint x="1239.88" y="710" as="targetPoint" />
          </mxGeometry>
        </mxCell>
        <mxCell id="VP--jvnIrPfgmcB4H4c5-32" value="&lt;span style=&quot;font-size: 7px;&quot;&gt;Arrivo&lt;/span&gt;" style="text;html=1;strokeColor=none;fillColor=none;align=center;verticalAlign=middle;whiteSpace=wrap;rounded=0;" vertex="1" parent="1">
          <mxGeometry x="1210" y="730" width="60" height="30" as="geometry" />
        </mxCell>
        <mxCell id="VP--jvnIrPfgmcB4H4c5-33" value="" style="endArrow=none;html=1;rounded=0;exitX=0.5;exitY=0;exitDx=0;exitDy=0;endFill=0;startArrow=oval;startFill=0;entryX=1;entryY=1;entryDx=0;entryDy=0;" edge="1" parent="1" target="VP--jvnIrPfgmcB4H4c5-15">
          <mxGeometry width="50" height="50" relative="1" as="geometry">
            <mxPoint x="1279.8700000000001" y="740" as="sourcePoint" />
            <mxPoint x="1279.8700000000001" y="710" as="targetPoint" />
          </mxGeometry>
        </mxCell>
        <mxCell id="VP--jvnIrPfgmcB4H4c5-34" value="&lt;span style=&quot;font-size: 7px;&quot;&gt;Costo&lt;/span&gt;" style="text;html=1;strokeColor=none;fillColor=none;align=center;verticalAlign=middle;whiteSpace=wrap;rounded=0;" vertex="1" parent="1">
          <mxGeometry x="1250" y="730" width="60" height="30" as="geometry" />
        </mxCell>
        <mxCell id="VP--jvnIrPfgmcB4H4c5-35" value="" style="endArrow=none;html=1;rounded=0;endFill=0;startArrow=oval;startFill=0;entryX=0.859;entryY=0.646;entryDx=0;entryDy=0;entryPerimeter=0;" edge="1" parent="1" target="VP--jvnIrPfgmcB4H4c5-15">
          <mxGeometry width="50" height="50" relative="1" as="geometry">
            <mxPoint x="1310" y="720" as="sourcePoint" />
            <mxPoint x="1290" y="700" as="targetPoint" />
          </mxGeometry>
        </mxCell>
        <mxCell id="VP--jvnIrPfgmcB4H4c5-36" value="&lt;span style=&quot;font-size: 7px;&quot;&gt;Tempistica&lt;/span&gt;" style="text;html=1;strokeColor=none;fillColor=none;align=center;verticalAlign=middle;whiteSpace=wrap;rounded=0;rotation=-45;" vertex="1" parent="1">
          <mxGeometry x="1290" y="710" width="60" height="30" as="geometry" />
        </mxCell>
      </root>
    </mxGraphModel>
  </diagram>
</mxfile>
